<svg fill="#000000" xmlns="http://www.w3.org/2000/svg"  viewBox="0 0 32 32" width="64px" height="64px"><path d="M 10 4 L 10 6 L 8 6 L 8 8 L 6 8 L 6 15 L 8 15 L 8 11 L 10 11 L 10 13 L 22 13 L 22 11 L 24 11 L 24 15 L 26 15 L 26 8 L 24 8 L 24 6 L 22 6 L 22 4 L 10 4 z M 26 15 L 26 20 L 28 20 L 28 15 L 26 15 z M 26 20 L 24 20 L 24 23 L 26 23 L 26 20 z M 24 23 L 22 23 L 22 25 L 24 25 L 24 23 z M 22 25 L 19 25 L 19 27 L 22 27 L 22 25 z M 19 27 L 13 27 L 13 29 L 19 29 L 19 27 z M 13 27 L 13 25 L 10 25 L 10 27 L 13 27 z M 10 25 L 10 23 L 8 23 L 8 25 L 10 25 z M 8 23 L 8 20 L 6 20 L 6 23 L 8 23 z M 6 20 L 6 15 L 4 15 L 4 20 L 6 20 z M 11 15 L 11 18 L 14 18 L 14 15 L 11 15 z M 18 15 L 18 18 L 21 18 L 21 15 L 18 15 z"/></svg>